<?xml version="1.0" encoding="utf-8"?>
<!-- Generator: Adobe Illustrator 24.1.0, SVG Export Plug-In . SVG Version: 6.00 Build 0)  -->
<svg version="1.1" id="Layer_1" xmlns="http://www.w3.org/2000/svg" xmlns:xlink="http://www.w3.org/1999/xlink" x="0px" y="0px"
	 viewBox="0 0 1000 1000" style="enable-background:new 0 0 1000 1000;" xml:space="preserve">
<style type="text/css">
	.st0{fill:#000000;}
</style>
<g>
	<path class="st0" d="M755.08,339.02c-3.29-3.88-7.7-6.84-13.22-8.9c-5.52-2.06-11.34-3.09-17.45-3.09
		c-16.33,0-29.94,4.64-40.8,13.92c-10.87,9.28-19.07,19.89-24.59,31.82c-5.52,11.93-10.57,25.88-15.16,41.86l-3.35,11.28h-31.02
		l-4.94,16.22h31.02l-49.18,160.58c-3.99,13.75-7.93,23.94-11.81,30.58c-3.88,6.64-8.81,9.96-14.81,9.96c-1.62,0-3.03-0.3-4.27-0.86
		c-4.42-1.25-8.67-4.64-10.89-9.42c-6.53-14.05-4.31-33.81-0.95-48.39c0.24-1.06,0.4-1.93,0.83-3.06
		c2.57-9.39,5.85-18.89,9.37-29.13c3.97-11.55,8-22.86,12.09-33.93c4.09-11.07,7.46-20.33,10.11-27.8
		c1.68-5.29,3.55-10.16,5.6-14.62c2.04-4.45,4.09-8.9,6.14-13.36c2.04-4.45,3.85-9.02,5.41-13.72c1.56-4.69,2.71-9.93,3.43-15.7
		c-0.96-4.81-3.07-8.3-6.32-10.47c-3.25-2.17-7.17-3.25-11.73-3.25c-4.33,0-8.85,1.03-13.54,3.07c-4.69,2.05-8.97,4.39-12.81,7.04
		c-22.33,15.4-42,34.06-59.02,55.95c-17.02,21.9-32.36,45.25-46.02,70.03c0.72-9.39,2.22-17.87,4.51-25.45
		c2.28-7.58,5.29-14.98,9.02-22.2c3.73-7.22,8-14.38,12.82-21.48c4.81-7.1,9.98-14.86,15.52-23.28c3.85-5.78,7.52-11.73,11.01-17.87
		c3.48-6.14,5.23-12.21,5.23-18.23c0-9.14-2.11-15.94-6.32-20.4c-4.21-4.45-9.57-6.68-16.06-6.68c-6.98,0-13.6,1.39-19.86,4.15
		c-6.26,2.77-11.91,5.84-16.97,9.21c-17.33,16.85-32.73,33.99-46.2,51.44c-13.48,17.45-25.57,35.8-36.28,55.05
		c-10.71,19.26-20.28,39.71-28.7,61.37c-8.42,21.66-16.24,45.24-23.46,70.75c-2.17-0.72-3.73-2.53-4.69-5.41
		c-0.96-2.89-1.44-6.5-1.44-10.83c0-6.02,0.78-13.24,2.35-21.66c1.56-8.43,3.61-16.9,6.14-25.45c2.52-8.54,5.35-16.72,8.48-24.55
		c3.12-7.82,6.14-14.26,9.02-19.31c6.01-12.27,12.75-23.88,20.22-34.84c7.45-10.95,15.16-21.78,23.1-32.49
		c7.94-10.71,15.88-21.42,23.83-32.13c7.94-10.71,15.52-22.08,22.74-34.11c1.68-2.89,3.07-5.83,4.15-8.84
		c1.08-3.01,1.62-6.19,1.62-9.56c0-11.31-3.49-19.13-10.47-23.46c-6.98-4.33-15.88-6.5-26.71-6.5c-24.31,0-47.83,5.36-70.57,16.06
		c-22.74,10.71-43.14,25.09-61.19,43.14c-4.81,4.82-9.02,10.23-12.63,16.24c-3.61,6.02-5.41,12.27-5.41,18.77
		c0,6.26,1.74,12.16,5.23,17.69c3.49,5.54,9.08,8.3,16.79,8.3c6.01,0,11.37-1.08,16.07-3.25c4.69-2.17,8.72-4.93,12.09-8.3
		c3.37-3.37,6.01-7.28,7.94-11.73c1.92-4.45,3.25-8.96,3.97-13.54l-2.53-2.17c-1.93,2.17-4.03,4.82-6.32,7.94
		c-2.29,3.13-4.82,6.02-7.58,8.66c-2.77,2.65-5.78,4.94-9.03,6.86c-3.25,1.93-6.68,2.89-10.29,2.89c-4.57,0-7.76-1.44-9.57-4.33
		c-1.8-2.89-2.71-6.14-2.71-9.75c0-3.12,0.48-6.07,1.45-8.84c0.96-2.76,2.4-4.99,4.33-6.68c7.46-8.66,16.12-16.79,25.99-24.37
		c9.87-7.58,20.34-14.26,31.41-20.03c11.07-5.78,22.5-10.29,34.29-13.54c11.79-3.25,23.58-4.87,35.38-4.87h7.22
		c2.65,0,3.97,1.33,3.97,3.97c0,1.93-0.61,3.55-1.8,4.87c-1.21,1.33-2.41,2.71-3.61,4.15c-5.06,6.26-10.77,13.72-17.15,22.38
		c-6.38,8.66-13,17.57-19.86,26.71c-6.86,9.15-13.53,18.11-20.03,26.89c-6.5,8.79-12.27,16.19-17.33,22.2
		c-6.98,8.66-13.54,17.87-19.67,27.62c-6.14,9.75-11.55,19.85-16.25,30.32c-4.69,10.47-8.36,21.12-11.01,31.95
		c-2.65,10.83-3.97,21.54-3.97,32.13c0,6.26,1.32,12.93,3.97,20.04c2.64,7.1,6.01,13.77,10.09,20.04
		c4.09,6.26,8.77,11.43,14.06,15.52c5.28,4.09,10.45,6.14,15.5,6.14c3.85,0,8.17-2.29,12.98-6.86c0.96-4.82,2.94-12.7,5.95-23.64
		c3-10.95,7.03-23.53,12.08-37.72c5.04-14.2,11.17-29.48,18.38-45.84c7.21-16.36,15.38-32.36,24.51-48.01
		c9.13-15.64,19.29-30.32,30.46-44.04c11.17-13.72,23.37-25.15,36.59-34.29c0.48-0.48,1.98-1.56,4.5-3.25
		c2.52-1.68,4.99-2.53,7.39-2.53c0.96,0,1.92,0.24,2.89,0.72l-6.12,9.75c-5.51,9.87-11.38,20.34-17.61,31.41
		c-6.23,11.07-12.04,22.5-17.42,34.29c-5.39,11.79-9.88,23.83-13.47,36.1c-3.59,12.27-5.39,24.55-5.39,36.82
		c0,10.35,1.5,20.58,4.51,30.68c3.01,10.11,4.58,24.22,15.34,29.6c0.48,0.24,1.62,0.04,2.16,0c5.76-0.41,9.87-1.87,12.28-5.6
		c2.4-3.73,4.03-8.18,4.87-13.36c0.84-5.18,1.38-10.59,1.62-16.24c0.24-5.65,1.08-10.52,2.53-14.62
		c9.14-25.51,21.36-48.67,36.64-69.49c15.28-20.81,33.51-40.49,54.69-59.02l10.11-7.58c1.44-0.96,2.53-1.44,3.25-1.44
		c1.2,0,2.53,0.85,3.97,2.53c-7.94,12.76-15.34,25.27-22.2,37.54c-6.86,12.27-12.45,25.39-16.79,39.35
		c-1.69,3.37-3.61,8.3-5.78,14.8c-2.17,6.5-4.15,13.66-5.96,21.48c-1.8,7.82-3.31,15.65-4.51,23.46c-1.21,7.82-1.8,14.62-1.8,20.4
		c0,4.33,0.65,9.14,1.96,14.44c1.31,5.29,3.4,10.29,6.26,14.98c2.86,4.69,6.44,8.6,10.73,11.73c0.2,0.15,0.42,0.28,0.62,0.42
		c0.12,0.1,0.22,0.2,0.34,0.3c7.11,5.7,17.19,8.55,30.23,8.55c18.22,0,33.26-5.38,45.12-16.13c11.87-10.75,21.09-23.62,27.67-38.6
		c6.58-14.98,13.92-35.52,22.03-61.6l30.67-100.29h29.61l5.11-16.22h-29.61l21.33-69.62c1.17-4.11,2.56-7.43,4.14-9.96
		c1.59-2.53,3.91-3.79,6.96-3.79c2.58,0,4.55,0.77,5.9,2.29c1.35,1.53,2.44,3.64,3.26,6.35c2.35,7.17,4.7,12.34,7.05,15.51
		c2.35,3.17,6.11,4.76,11.28,4.76c5.05,0,9.25-1.82,12.6-5.46c3.35-3.64,5.02-7.99,5.02-13.04
		C760.01,347.54,758.37,342.9,755.08,339.02z"/>
</g>
</svg>
