<?xml version="1.0" encoding="utf-8"?>
<!-- Generator: Adobe Illustrator 24.1.0, SVG Export Plug-In . SVG Version: 6.00 Build 0)  -->
<svg version="1.1" id="Layer_1" xmlns="http://www.w3.org/2000/svg" xmlns:xlink="http://www.w3.org/1999/xlink" x="0px" y="0px"
	 viewBox="0 0 1000 1000" style="enable-background:new 0 0 1000 1000;" xml:space="preserve">
<g>
	<path d="M986.2,193.4c-6.3-7.4-14.7-13-25.1-17s-21.5-5.9-33.3-5.9c-31,0-56.9,8.8-77.7,26.5c-20.8,17.7-36.4,37.9-46.9,60.6
		c-10.5,22.7-20.2,49.3-29,79.8l-6.3,21.5h-59l-9.3,30.9h59l-93.7,305.9c-7.6,26.3-15,45.5-22.5,58.3s-16.8,19-28.2,19
		c-3,0-5.7-0.6-8.2-1.7c-8.4-2.3-16.6-8.8-20.8-17.9c-12.4-26.7-8.2-64.4-1.9-92.2c0.4-2.1,0.8-3.6,1.5-5.9c5-17.9,11-36,17.9-55.4
		c7.6-21.9,15.2-43.6,23-64.6c7.8-21,14.3-38.7,19.2-52.9c3.2-10.1,6.7-19.4,10.7-27.8c3.8-8.6,7.8-17,11.6-25.5s7.2-17.1,10.3-26.1
		c3-9,5.1-18.9,6.5-29.9c-1.9-9.1-5.9-15.8-12-20c-6.1-4.2-13.7-6.1-22.3-6.1c-8.2,0-16.8,1.9-25.7,5.9c-9,3.8-17.1,8.4-24.4,13.3
		c-42.5,29.3-80,64.9-112.4,106.7s-61.7,86.1-87.6,133.3c1.3-17.9,4.2-34.1,8.6-48.6s10.1-28.6,17.1-42.3
		c7-13.7,15.2-27.4,24.4-40.9c9.1-13.5,19-28.4,29.5-44.4c7.4-11,14.3-22.3,21-34.1c6.7-11.6,9.9-23.2,9.9-34.7
		c0-17.3-4-30.3-12-38.9c-8-8.6-18.3-12.8-30.7-12.8c-13.3,0-25.9,2.7-37.9,7.8c-12,5.3-22.7,11-32.4,17.5
		c-33,32.2-62.3,64.8-88,97.9c-25.7,33.3-48.8,68.2-69.1,104.8c-20.4,36.8-38.7,75.6-54.7,116.9s-30.9,86.1-44.8,134.8
		c-4.2-1.3-7-4.8-9-10.3s-2.7-12.4-2.7-20.6c0-11.4,1.5-25.1,4.6-41.3c3-16,6.9-32.2,11.6-48.6c4.8-16.2,10.3-31.8,16.2-46.7
		s11.6-27.2,17.1-36.8c11.4-23.4,24.4-45.5,38.5-66.3c14.3-21,29-41.5,44-61.9c15-20.4,30.3-40.8,45.3-61.1s29.5-42.1,43.2-64.9
		c3.2-5.5,5.9-11,7.8-16.8c1.9-5.7,3-11.8,3-18.3c0-21.5-6.7-36.4-20-44.8s-30.3-12.4-50.9-12.4c-46.3,0-91,10.3-134.5,30.7
		c-43.2,20.4-82.1,47.8-116.6,82.1c-9.1,9.1-17.1,19.4-24,30.9S4.3,405.8,4.3,418.1c0,12,3.2,23.2,9.9,33.7
		c6.7,10.5,17.3,15.8,32,15.8c11.4,0,21.7-2.1,30.7-6.1c9-4.2,16.6-9.3,23-15.8c6.5-6.5,11.4-13.9,15-22.3
		c3.6-8.6,6.1-17.1,7.6-25.7l-4.8-4.2c-3.6,4.2-7.6,9.1-12,15s-9.1,11.4-14.5,16.6c-5.3,5-11,9.3-17.1,13.1
		c-6.1,3.6-12.8,5.5-19.6,5.5c-8.8,0-14.9-2.7-18.3-8.2c-3.4-5.5-5.1-11.6-5.1-18.7c0-5.9,1-11.6,2.7-16.8c1.9-5.3,4.6-9.5,8.2-12.8
		c14.3-16.6,30.7-32,49.5-46.5s38.7-27.2,59.8-38.1c21.1-11,42.9-19.6,65.3-25.7c22.5-6.1,44.9-9.3,67.4-9.3h13.7
		c5,0,7.6,2.5,7.6,7.6c0,3.6-1.1,6.7-3.4,9.3c-2.3,2.5-4.6,5.1-6.9,7.8c-9.7,12-20.6,26.1-32.6,42.7c-12,16.6-24.8,33.5-37.9,50.9
		s-25.7,34.5-38.1,51.2c-12.4,16.8-23.4,30.9-33,42.3c-13.3,16.6-25.7,34.1-37.5,52.6c-11.6,18.7-21.9,37.7-30.9,57.7
		s-16,40.2-21,60.9c-5,20.6-7.6,40.9-7.6,61.1c0,12,2.5,24.6,7.6,38.1c5,13.5,11.4,26.3,19.2,38.1c7.8,12,16.8,21.7,26.9,29.5
		c10.1,7.8,20,11.6,29.5,11.6c7.4,0,15.6-4.4,24.8-13.1c1.9-9.1,5.5-24.2,11.4-44.9c5.7-21,13.3-44.8,23-71.8
		c9.5-27,21.3-56.2,35-87.2c13.7-31.2,29.3-61.7,46.7-91.4c17.3-29.7,36.8-57.7,58.1-83.8s44.6-47.8,69.7-65.3c1-1,3.8-3,8.6-6.1
		c4.8-3.2,9.5-4.8,14.1-4.8c1.9,0,3.6,0.4,5.5,1.3l-11.6,18.7c-10.5,18.9-21.7,38.7-33.5,59.8s-22.9,42.9-33.1,65.3
		c-10.3,22.5-18.9,45.3-25.7,68.8c-6.9,23.4-10.3,46.7-10.3,70.1c0,19.6,2.9,39.2,8.6,58.5c5.7,19.2,8.8,46.1,29.1,56.4
		c1,0.4,3,0,4.2,0c11-0.8,18.9-3.6,23.4-10.7c4.6-7,7.6-15.6,9.3-25.5c1.7-9.9,2.7-20.2,3-30.9c0.4-10.9,2.1-20,4.8-27.8
		c17.3-48.6,40.8-92.8,69.7-132.4c29.1-39.6,63.8-77.1,104.2-112.4l19.2-14.5c2.7-1.9,4.8-2.7,6.1-2.7c2.3,0,4.8,1.7,7.6,4.8
		c-15,24.4-29.1,48.2-42.3,71.4c-13.1,23.4-23.8,48.4-32,74.9c-3.2,6.5-6.9,15.8-11,28.2c-4.2,12.4-7.8,26.1-11.4,40.9
		c-3.4,14.9-6.3,29.9-8.6,44.8s-3.4,27.8-3.4,38.9c0,8.2,1.1,17.3,3.8,27.4c2.5,10.1,6.5,19.6,12,28.6s12.2,16.4,20.4,22.3
		c0.4,0.4,0.8,0.6,1.1,0.8c0.2,0.2,0.4,0.4,0.6,0.6c13.5,10.9,32.8,16.2,57.5,16.2c34.7,0,63.4-10.3,85.9-30.7
		c22.7-20.6,40.2-44.9,52.8-73.5c12.6-28.6,26.5-67.6,41.9-117.3l58.5-191H894l9.7-30.9h-56.4l40.6-132.6c2.3-7.8,5-14.1,7.8-19
		c3-4.8,7.4-7.2,13.3-7.2c5,0,8.6,1.5,11.2,4.4c2.5,2.9,4.6,6.9,6.3,12.2c4.4,13.7,9,23.4,13.3,29.5s11.6,9.1,21.5,9.1
		c9.5,0,17.5-3.4,24-10.5c6.3-6.9,9.5-15.2,9.5-24.8C995.5,209.6,992.5,200.8,986.2,193.4z"/>
</g>
</svg>
